<svg width="16" height="17" viewBox="0 0 16 17" fill="none" xmlns="http://www.w3.org/2000/svg">
<path d="M14 6.9834H10V2.9834C10 2.45297 9.78929 1.94426 9.41421 1.56919C9.03914 1.19411 8.53043 0.983398 8 0.983398C7.46957 0.983398 6.96086 1.19411 6.58579 1.56919C6.21071 1.94426 6 2.45297 6 2.9834V6.9834H2C1.46957 6.9834 0.96086 7.19411 0.585787 7.56919C0.210714 7.94426 0 8.45297 0 8.9834C0 9.51383 0.210714 10.0225 0.585787 10.3976C0.96086 10.7727 1.46957 10.9834 2 10.9834H6V14.9834C6 15.5138 6.21071 16.0225 6.58579 16.3976C6.96086 16.7727 7.46957 16.9834 8 16.9834C8.53043 16.9834 9.03914 16.7727 9.41421 16.3976C9.78929 16.0225 10 15.5138 10 14.9834V10.9834H14C14.5304 10.9834 15.0391 10.7727 15.4142 10.3976C15.7893 10.0225 16 9.51383 16 8.9834C16 8.45297 15.7893 7.94426 15.4142 7.56919C15.0391 7.19411 14.5304 6.9834 14 6.9834Z" fill="white"/>
</svg>
