<svg width="24" height="25" viewBox="0 0 24 25" fill="none" xmlns="http://www.w3.org/2000/svg">
<path d="M14.8284 6.75635L12 9.58478L9.17156 6.75635C8.79649 6.38128 8.28778 6.17057 7.75735 6.17057C7.22691 6.17057 6.71821 6.38128 6.34313 6.75635C5.96806 7.13143 5.75735 7.64013 5.75735 8.17057C5.75735 8.701 5.96806 9.20971 6.34313 9.58478L9.17156 12.4132L6.34313 15.2416C5.96806 15.6167 5.75735 16.1254 5.75735 16.6558C5.75735 17.1863 5.96806 17.695 6.34313 18.0701C6.71821 18.4451 7.22691 18.6558 7.75735 18.6558C8.28778 18.6558 8.79649 18.4451 9.17156 18.0701L12 15.2416L14.8284 18.0701C15.2035 18.4451 15.7122 18.6558 16.2426 18.6558C16.7731 18.6558 17.2818 18.4451 17.6568 18.0701C18.0319 17.695 18.2426 17.1863 18.2426 16.6558C18.2426 16.1254 18.0319 15.6167 17.6568 15.2416L14.8284 12.4132L17.6568 9.58478C18.0319 9.20971 18.2426 8.701 18.2426 8.17057C18.2426 7.64013 18.0319 7.13143 17.6568 6.75635C17.2818 6.38128 16.7731 6.17057 16.2426 6.17057C15.7122 6.17057 15.2035 6.38128 14.8284 6.75635Z" fill="white"/>
</svg>
