<svg width="17" height="17" viewBox="0 0 17 17" fill="none" xmlns="http://www.w3.org/2000/svg">
<path fill-rule="evenodd" clip-rule="evenodd" d="M1.24074 16.0032C1.45995 16.1497 1.71768 16.2279 1.98135 16.228C2.15646 16.2282 2.32989 16.1938 2.49166 16.1267C2.65343 16.0597 2.80037 15.9613 2.92402 15.8373L8.64802 10.1133L14.372 15.8373C14.4957 15.9613 14.6426 16.0597 14.8044 16.1267C14.9662 16.1938 15.1396 16.2282 15.3147 16.228C15.5784 16.2279 15.8361 16.1497 16.0553 16.0032C16.2745 15.8567 16.4454 15.6485 16.5463 15.4049C16.6472 15.1613 16.6736 14.8932 16.6221 14.6346C16.5707 14.376 16.4438 14.1385 16.2574 13.952L10.5334 8.22799L16.2574 2.504C16.5002 2.25253 16.6346 1.91573 16.6316 1.56613C16.6285 1.21654 16.4883 0.88212 16.2411 0.63491C15.9939 0.387699 15.6595 0.247473 15.3099 0.244435C14.9603 0.241397 14.6235 0.37579 14.372 0.618667L8.64802 6.34266L2.92403 0.618667C2.67256 0.37579 2.33576 0.241397 1.98616 0.244435C1.63657 0.247473 1.30215 0.387699 1.05494 0.63491C0.807728 0.88212 0.667502 1.21654 0.664464 1.56613C0.661426 1.91573 0.795819 2.25253 1.0387 2.504L6.76269 8.22799L1.03868 13.952C0.852271 14.1385 0.725329 14.376 0.673904 14.6346C0.622481 14.8932 0.648886 15.1613 0.749779 15.4049C0.850673 15.6485 1.02153 15.8567 1.24074 16.0032Z" fill="white"/>
</svg>
