<svg width="14" height="10" viewBox="0 0 14 10" fill="none" xmlns="http://www.w3.org/2000/svg">
<path d="M5.27868 9.50666C5.15829 9.50678 5.03906 9.48312 4.92784 9.43703C4.81662 9.39094 4.71561 9.32333 4.6306 9.23808L1.1106 5.71808C1.02305 5.63352 0.953212 5.53237 0.905171 5.42053C0.857129 5.30869 0.831842 5.18841 0.830784 5.06669C0.829726 4.94498 0.852919 4.82427 0.89901 4.71162C0.945101 4.59896 1.01317 4.49662 1.09923 4.41055C1.1853 4.32448 1.28765 4.25641 1.40031 4.21032C1.51296 4.16423 1.63367 4.14104 1.75538 4.1421C1.8771 4.14315 1.99738 4.16844 2.10922 4.21648C2.22105 4.26452 2.3222 4.33436 2.40676 4.42191L5.27868 7.29383L12.1106 0.461909C12.2835 0.294931 12.515 0.202536 12.7554 0.204624C12.9957 0.206713 13.2256 0.303118 13.3956 0.473076C13.5656 0.643033 13.662 0.872944 13.6641 1.11329C13.6661 1.35364 13.5737 1.58519 13.4068 1.75808L5.92676 9.23808C5.84175 9.32333 5.74074 9.39094 5.62952 9.43703C5.5183 9.48312 5.39907 9.50678 5.27868 9.50666Z" fill="white"/>
</svg>
