<svg width="12" height="12" viewBox="0 0 12 12" fill="none" xmlns="http://www.w3.org/2000/svg">
<path fill-rule="evenodd" clip-rule="evenodd" d="M1.25215 11.2462C1.40286 11.347 1.58005 11.4007 1.76132 11.4008C1.88171 11.4009 2.00094 11.3772 2.11216 11.3312C2.22338 11.2851 2.32439 11.2175 2.4094 11.1322L6.34467 7.19693L10.2799 11.1322C10.365 11.2175 10.466 11.2851 10.5772 11.3312C10.6884 11.3772 10.8076 11.4009 10.928 11.4008C11.1093 11.4007 11.2865 11.347 11.4372 11.2462C11.5879 11.1455 11.7054 11.0024 11.7747 10.8349C11.8441 10.6674 11.8622 10.4831 11.8269 10.3053C11.7915 10.1275 11.7043 9.96423 11.5761 9.83603L7.64084 5.90077L11.5761 1.96553C11.743 1.79265 11.8354 1.5611 11.8334 1.32075C11.8313 1.0804 11.7349 0.850491 11.5649 0.680534C11.3949 0.510577 11.165 0.414172 10.9247 0.412083C10.6843 0.409994 10.4528 0.50239 10.2799 0.669368L6.34467 4.6046L2.40944 0.669368C2.23656 0.50239 2.00501 0.409994 1.76466 0.412083C1.52431 0.414172 1.2944 0.510577 1.12444 0.680534C0.954485 0.850491 0.85808 1.0804 0.855992 1.32075C0.853903 1.5611 0.946299 1.79265 1.11328 1.96553L5.04851 5.90077L1.11324 9.83603C0.985078 9.96423 0.897805 10.1275 0.862452 10.3053C0.827098 10.4831 0.845251 10.6674 0.914615 10.8349C0.98398 11.0024 1.10144 11.1455 1.25215 11.2462Z" fill="white"/>
</svg>
