<svg width="15" height="14" viewBox="0 0 15 14" fill="none" xmlns="http://www.w3.org/2000/svg">
<path d="M13.3132 0.829977C13.7605 1.27731 14.0118 1.88402 14.0118 2.51664C14.0118 3.14926 13.7605 3.75597 13.3132 4.20331L5.33454 12.1833C5.14997 12.368 4.92041 12.5012 4.66854 12.57L1.25787 13.5C1.17287 13.523 1.08328 13.5232 0.998168 13.5006C0.91306 13.4779 0.835456 13.4331 0.773208 13.3708C0.71096 13.3085 0.666278 13.2308 0.643684 13.1457C0.621089 13.0605 0.621385 12.971 0.64454 12.886L1.57454 9.47531C1.64327 9.22344 1.77655 8.99388 1.96121 8.80931L9.93987 0.829977C10.3872 0.382652 10.9939 0.131348 11.6265 0.131348C12.2592 0.131348 12.8659 0.382652 13.3132 0.829977ZM9.29321 2.88998L2.66787 9.51664C2.6064 9.57819 2.56205 9.65471 2.53921 9.73864L1.83921 12.3053L4.40587 11.6053C4.48947 11.5819 4.56552 11.5371 4.62654 11.4753L11.2532 4.84998L9.29321 2.88998ZM10.6465 1.53664L9.99987 2.18331L11.9599 4.14331L12.6065 3.49664C12.8621 3.23584 13.0045 2.8847 13.0026 2.51954C13.0008 2.15438 12.8549 1.8047 12.5967 1.54649C12.3385 1.28828 11.9888 1.14241 11.6236 1.14056C11.2585 1.13872 10.9073 1.28105 10.6465 1.53664Z" fill="white"/>
</svg>
