<svg width="32" height="32" viewBox="0 0 32 32" fill="none" xmlns="http://www.w3.org/2000/svg">
<path d="M28.6667 10.6667H9.99999C9.64637 10.6667 9.30723 10.5262 9.05718 10.2761C8.80713 10.0261 8.66666 9.68696 8.66666 9.33333C8.66666 8.97971 8.80713 8.64057 9.05718 8.39052C9.30723 8.14048 9.64637 8 9.99999 8H28.6667C29.0203 8 29.3594 8.14048 29.6095 8.39052C29.8595 8.64057 30 8.97971 30 9.33333C30 9.68696 29.8595 10.0261 29.6095 10.2761C29.3594 10.5262 29.0203 10.6667 28.6667 10.6667ZM28.6667 17.3333H15.3333C14.9797 17.3333 14.6406 17.1929 14.3905 16.9428C14.1405 16.6928 14 16.3536 14 16C14 15.6464 14.1405 15.3072 14.3905 15.0572C14.6406 14.8071 14.9797 14.6667 15.3333 14.6667H28.6667C29.0203 14.6667 29.3594 14.8071 29.6095 15.0572C29.8595 15.3072 30 15.6464 30 16C30 16.3536 29.8595 16.6928 29.6095 16.9428C29.3594 17.1929 29.0203 17.3333 28.6667 17.3333ZM28.6667 24H20.6667C20.313 24 19.9739 23.8595 19.7238 23.6095C19.4738 23.3594 19.3333 23.0203 19.3333 22.6667C19.3333 22.313 19.4738 21.9739 19.7238 21.7239C19.9739 21.4738 20.313 21.3333 20.6667 21.3333H28.6667C29.0203 21.3333 29.3594 21.4738 29.6095 21.7239C29.8595 21.9739 30 22.313 30 22.6667C30 23.0203 29.8595 23.3594 29.6095 23.6095C29.3594 23.8595 29.0203 24 28.6667 24Z" fill="#4A1F83"/>
<path d="M4.66668 10.6667C5.40306 10.6667 6.00001 10.0697 6.00001 9.33333C6.00001 8.59695 5.40306 8 4.66668 8C3.9303 8 3.33334 8.59695 3.33334 9.33333C3.33334 10.0697 3.9303 10.6667 4.66668 10.6667Z" fill="#4A1F83"/>
<path d="M9.99999 17.3334C10.7364 17.3334 11.3333 16.7364 11.3333 16C11.3333 15.2636 10.7364 14.6667 9.99999 14.6667C9.26361 14.6667 8.66666 15.2636 8.66666 16C8.66666 16.7364 9.26361 17.3334 9.99999 17.3334Z" fill="#4A1F83"/>
<path d="M15.3333 24C16.0697 24 16.6667 23.403 16.6667 22.6666C16.6667 21.9303 16.0697 21.3333 15.3333 21.3333C14.597 21.3333 14 21.9303 14 22.6666C14 23.403 14.597 24 15.3333 24Z" fill="#4A1F83"/>
</svg>
