<svg width="32" height="32" viewBox="0 0 32 32" fill="none" xmlns="http://www.w3.org/2000/svg">
<path d="M3.33333 10.6667L22 10.6667C22.3536 10.6667 22.6928 10.5262 22.9428 10.2761C23.1929 10.0261 23.3333 9.68696 23.3333 9.33333C23.3333 8.97971 23.1929 8.64057 22.9428 8.39052C22.6928 8.14048 22.3536 8 22 8L3.33333 8C2.97971 8 2.64057 8.14047 2.39052 8.39052C2.14047 8.64057 2 8.97971 2 9.33333C2 9.68695 2.14047 10.0261 2.39052 10.2761C2.64057 10.5262 2.97971 10.6667 3.33333 10.6667ZM3.33333 17.3333L16.6667 17.3333C17.0203 17.3333 17.3594 17.1929 17.6095 16.9428C17.8595 16.6928 18 16.3536 18 16C18 15.6464 17.8595 15.3072 17.6095 15.0572C17.3594 14.8071 17.0203 14.6667 16.6667 14.6667L3.33333 14.6667C2.97971 14.6667 2.64057 14.8071 2.39052 15.0572C2.14047 15.3072 2 15.6464 2 16C2 16.3536 2.14047 16.6928 2.39052 16.9428C2.64057 17.1929 2.97971 17.3333 3.33333 17.3333ZM3.33333 24L11.3333 24C11.687 24 12.0261 23.8595 12.2761 23.6095C12.5262 23.3594 12.6667 23.0203 12.6667 22.6667C12.6667 22.313 12.5262 21.9739 12.2761 21.7239C12.0261 21.4738 11.687 21.3333 11.3333 21.3333L3.33333 21.3333C2.97971 21.3333 2.64057 21.4738 2.39052 21.7239C2.14047 21.9739 2 22.313 2 22.6667C2 23.0203 2.14047 23.3594 2.39052 23.6095C2.64057 23.8595 2.97971 24 3.33333 24Z" fill="#4A1F83"/>
<path d="M27.3333 10.6667C26.597 10.6667 26 10.0697 26 9.33333C26 8.59695 26.597 8 27.3333 8C28.0697 8 28.6667 8.59695 28.6667 9.33333C28.6667 10.0697 28.0697 10.6667 27.3333 10.6667Z" fill="#4A1F83"/>
<path d="M22 17.3334C21.2636 17.3334 20.6667 16.7364 20.6667 16C20.6667 15.2636 21.2636 14.6667 22 14.6667C22.7364 14.6667 23.3333 15.2636 23.3333 16C23.3333 16.7364 22.7364 17.3334 22 17.3334Z" fill="#4A1F83"/>
<path d="M16.6667 24C15.9303 24 15.3333 23.403 15.3333 22.6666C15.3333 21.9303 15.9303 21.3333 16.6667 21.3333C17.403 21.3333 18 21.9303 18 22.6666C18 23.403 17.403 24 16.6667 24Z" fill="#4A1F83"/>
</svg>
