<svg width="739" height="689" viewBox="0 0 739 689" fill="none" xmlns="http://www.w3.org/2000/svg">
<path fill-rule="evenodd" clip-rule="evenodd" d="M440.184 594.486C391.152 598.269 347.881 567.951 302.412 549.216C263.793 533.303 228.546 514.579 193.006 492.636C149.416 465.723 88.142 453.244 69.6152 405.483C51.2598 358.165 76.7732 303.2 102.564 259.488C125.189 221.143 171.06 206.144 204.544 176.8C234.124 150.876 253.26 114.358 288.378 96.6437C326.875 77.2243 372.108 58.0753 413.042 71.625C453.933 85.1608 461.969 142.453 498.013 166.037C545.083 196.836 630.803 175.784 651.913 227.924C672.167 277.947 593.217 317.748 580.691 370.242C568.292 422.204 608.728 482.505 580.364 527.774C552.412 572.385 492.673 590.437 440.184 594.486Z" fill="#9EE3DD" fill-opacity="0.75"/>
</svg>
