<svg width="831" height="775" viewBox="0 0 831 775" fill="none" xmlns="http://www.w3.org/2000/svg">
<path fill-rule="evenodd" clip-rule="evenodd" d="M494.989 668.655C439.843 672.909 391.177 638.812 340.039 617.74C296.605 599.843 256.963 578.785 216.991 554.106C167.968 523.837 99.0535 509.802 78.2167 456.087C57.5727 402.868 86.2671 341.051 115.274 291.888C140.719 248.762 192.31 231.893 229.968 198.891C263.237 169.734 284.759 128.664 324.255 108.741C367.552 86.9001 418.425 65.3636 464.462 80.6027C510.451 95.8261 519.49 160.261 560.027 186.786C612.966 221.425 709.374 197.749 733.116 256.389C755.895 312.649 667.101 357.412 653.014 416.451C639.069 474.892 684.547 542.712 652.646 593.624C621.208 643.798 554.022 664.101 494.989 668.655Z" fill="#9EE3DD" fill-opacity="0.75"/>
</svg>
