<svg width="86" height="86" viewBox="0 0 86 86" fill="none" xmlns="http://www.w3.org/2000/svg">
<path fill-rule="evenodd" clip-rule="evenodd" d="M60.8023 18.0005C69.7904 23.2508 74.0381 34.0879 74.4705 44.596C74.8508 53.8348 69.6304 61.9889 62.8678 68.1931C56.8954 73.6723 48.9259 76.7465 40.998 75.3042C33.874 74.0081 30.3037 66.9572 25.5683 61.4074C19.4226 54.2045 8.89516 48.6164 10.1765 39.1814C11.5525 29.0502 21.9539 23.2671 31.278 19.3661C40.8592 15.3576 51.8213 12.7545 60.8023 18.0005Z" fill="#D858E3"/>
<path d="M27.1178 52.8262V37.541H31.7565C33.0818 37.541 34.2656 37.8455 35.3079 38.4544C36.3571 39.0563 37.1752 39.9171 37.7619 41.0369C38.3487 42.1497 38.642 43.4165 38.642 44.8372V45.5406C38.642 46.9614 38.3521 48.2246 37.7723 49.3304C37.1994 50.4361 36.3882 51.2935 35.339 51.9024C34.2897 52.5114 33.106 52.8193 31.7875 52.8262H27.1178ZM30.224 40.0921V50.2963H31.7254C32.9402 50.2963 33.8687 49.8937 34.5106 49.0889C35.1527 48.2841 35.4805 47.1328 35.4943 45.6351V44.8268C35.4943 43.273 35.1768 42.0972 34.5417 41.2993C33.9066 40.4945 32.9783 40.0921 31.7565 40.0921H30.224ZM40.2469 47.0419C40.2469 45.915 40.4609 44.9107 40.8889 44.0289C41.3169 43.147 41.9312 42.4646 42.732 41.9817C43.5396 41.4988 44.475 41.2574 45.5379 41.2574C47.0497 41.2574 48.2818 41.7263 49.2344 42.6641C50.1938 43.602 50.7288 44.8757 50.8393 46.4854L50.8601 47.2622C50.8601 49.0049 50.3802 50.4047 49.4208 51.4614C48.4612 52.5113 47.1739 53.0362 45.5587 53.0362C43.9434 53.0362 42.6526 52.5113 41.6862 51.4614C40.7267 50.4116 40.2469 48.9839 40.2469 47.1783V47.0419ZM43.2393 47.2622C43.2393 48.3401 43.4394 49.1659 43.8399 49.7398C44.2402 50.3066 44.8132 50.5902 45.5587 50.5902C46.2834 50.5902 46.8495 50.3102 47.2568 49.7503C47.664 49.1834 47.8676 48.2806 47.8676 47.0419C47.8676 45.985 47.664 45.1661 47.2568 44.5853C46.8495 44.0044 46.2765 43.7139 45.5379 43.7139C44.8062 43.7139 44.2402 44.0044 43.8399 44.5853C43.4394 45.1592 43.2393 46.0514 43.2393 47.2622Z" fill="black"/>
<path d="M37.7964 61.8732H45.241V62.965H36.5125V47.6798H37.7964V61.8732ZM48.7926 62.965H47.5501V51.6061H48.7926V62.965ZM47.3326 48.3203C47.3326 48.0822 47.4086 47.8829 47.5604 47.7219C47.7123 47.5539 47.9194 47.4698 48.1817 47.4698C48.444 47.4698 48.6511 47.5539 48.803 47.7219C48.9617 47.8829 49.0411 48.0822 49.0411 48.3203C49.0411 48.5582 48.9617 48.7577 48.803 48.9186C48.6511 49.0796 48.444 49.1601 48.1817 49.1601C47.9194 49.1601 47.7123 49.0796 47.5604 48.9186C47.4086 48.7577 47.3326 48.5582 47.3326 48.3203ZM58.8776 60.078C58.8776 59.4551 58.6291 58.9548 58.1321 58.5769C57.642 58.1989 56.8999 57.905 55.906 57.695C54.9119 57.4781 54.1389 57.2331 53.5866 56.9602C53.0412 56.6802 52.634 56.3407 52.3648 55.9418C52.1025 55.5429 51.9713 55.0599 51.9713 54.4931C51.9713 53.5972 52.3406 52.8589 53.0793 52.278C53.8178 51.6902 54.7636 51.3962 55.9164 51.3962C57.1657 51.3962 58.1666 51.7111 58.919 52.341C59.6783 52.9639 60.058 53.7793 60.058 54.787H58.8155C58.8155 54.1222 58.5393 53.5693 57.9872 53.1284C57.4418 52.6874 56.7516 52.4669 55.9164 52.4669C55.1018 52.4669 54.446 52.6524 53.949 53.0234C53.4589 53.3874 53.2138 53.8632 53.2138 54.4511C53.2138 55.018 53.4175 55.4589 53.8248 55.7739C54.2389 56.0818 54.9879 56.3652 56.0716 56.6242C57.1623 56.8831 57.9768 57.1597 58.5152 57.4535C59.0605 57.7474 59.4644 58.1009 59.7266 58.5138C59.989 58.9267 60.1201 59.4272 60.1201 60.0151C60.1201 60.9739 59.737 61.7402 58.9708 62.3142C58.2115 62.8881 57.2175 63.175 55.9888 63.175C54.6842 63.175 53.6246 62.8566 52.81 62.2197C52.0024 61.5758 51.5986 60.7639 51.5986 59.7841H52.8411C52.8894 60.519 53.1931 61.0928 53.7523 61.5058C54.3183 61.9118 55.0638 62.1147 55.9888 62.1147C56.8516 62.1147 57.5488 61.9223 58.0804 61.5373C58.6119 61.1523 58.8776 60.666 58.8776 60.078ZM64.8416 48.6982V51.6061H67.161V52.635H64.8416V60.2041C64.8416 60.8339 64.9521 61.3028 65.173 61.6108C65.4007 61.9187 65.777 62.0726 66.3016 62.0726C66.5087 62.0726 66.8435 62.0377 67.3059 61.9677L67.3578 62.9965C67.0333 63.1155 66.5915 63.175 66.0324 63.175C65.1834 63.175 64.5656 62.9266 64.1789 62.4297C63.7924 61.9257 63.5992 61.1873 63.5992 60.2146V52.635H61.5386V51.6061H63.5992V48.6982H64.8416Z" fill="white"/>
<path d="M31.9693 28.0892H26.4816V42.8075H25.9224V28.0892H20.4347V27.5223H31.9693V28.0892ZM32.4352 36.9076C32.4352 35.8227 32.6389 34.85 33.0462 33.9891C33.4603 33.1212 34.0401 32.4459 34.7856 31.963C35.5381 31.4801 36.3871 31.2387 37.3329 31.2387C38.2716 31.2387 39.1138 31.473 39.8593 31.942C40.6048 32.4109 41.1846 33.0757 41.5987 33.9366C42.0199 34.7975 42.2338 35.7668 42.2408 36.8446V37.3485C42.2408 38.4403 42.0371 39.4166 41.6298 40.2774C41.2225 41.1382 40.6427 41.8101 39.8904 42.293C39.1448 42.7759 38.2992 43.0174 37.3535 43.0174C36.4078 43.0174 35.5588 42.7795 34.8064 42.3035C34.0609 41.8277 33.481 41.1628 33.0669 40.3089C32.6527 39.4481 32.4422 38.4823 32.4352 37.4114V36.9076ZM32.9943 37.3485C32.9943 38.2933 33.1773 39.1612 33.5432 39.952C33.916 40.7358 34.4302 41.3482 35.0859 41.7892C35.7486 42.2301 36.5044 42.4506 37.3535 42.4506C38.6305 42.4506 39.6695 41.9642 40.4701 40.9913C41.2778 40.0184 41.6816 38.7657 41.6816 37.233V36.9076C41.6816 35.9768 41.4953 35.116 41.1224 34.325C40.7497 33.5342 40.232 32.9183 39.5693 32.4774C38.9135 32.0295 38.168 31.8056 37.3329 31.8056C36.0558 31.8056 35.0135 32.299 34.2059 33.2857C33.3982 34.2726 32.9943 35.5148 32.9943 37.0125V37.3485Z" fill="white"/>
</svg>
